<?xml version="1.0" encoding="UTF-8"?> <svg xmlns="http://www.w3.org/2000/svg" width="111" height="32" viewBox="0 0 111 32" fill="none"><path d="M94.0149 9.08105H95.0737V10.2061H94.0149V9.08105Z" fill="#E40E23"></path><path d="M94.0149 10.2061H95.0737V11.3311H94.0149V10.2061Z" fill="#E40E23"></path><path d="M94.0149 11.3311H95.0737V12.4561H94.0149V11.3311Z" fill="#E40E23"></path><path d="M94.0149 12.4561H95.0737V13.5811H94.0149V12.4561Z" fill="#E40E23"></path><path d="M94.0149 13.5811H95.0737V14.7061H94.0149V13.5811Z" fill="#E40E23"></path><path d="M94.0149 14.7061H95.0737V15.8311H94.0149V14.7061Z" fill="#E40E23"></path><path d="M92.9561 15.8311H94.0149V16.9561H92.9561V15.8311Z" fill="#E40E23"></path><path d="M92.9561 16.9561H94.0149V18.0811H92.9561V16.9561Z" fill="#E40E23"></path><path d="M92.9561 18.0811H94.0149V19.2061H92.9561V18.0811Z" fill="#E40E23"></path><path d="M92.9561 19.2061H94.0149V20.3311H92.9561V19.2061Z" fill="#E40E23"></path><path d="M92.9561 20.3311H94.0149V21.4561H92.9561V20.3311Z" fill="#E40E23"></path><path d="M92.9561 21.4561H94.0149V22.5811H92.9561V21.4561Z" fill="#E40E23"></path><path d="M94.0149 22.5811H95.0737V23.7061H94.0149V22.5811Z" fill="#E40E23"></path><path d="M95.0737 23.7061H96.1325V24.8311H95.0737V23.7061Z" fill="#E40E23"></path><path d="M95.0737 24.8311H96.1325V25.9561H95.0737V24.8311Z" fill="#E40E23"></path><path d="M96.1325 24.8311H97.1913V25.9561H96.1325V24.8311Z" fill="#E40E23"></path><path d="M97.1913 24.8311H98.2502V25.9561H97.1913V24.8311Z" fill="#E40E23"></path><path d="M98.2502 24.8311H99.309V25.9561H98.2502V24.8311Z" fill="#E40E23"></path><path d="M99.309 24.8311H100.368V25.9561H99.309V24.8311Z" fill="#E40E23"></path><path d="M100.368 22.5811H101.427V23.7061H100.368V22.5811Z" fill="#E40E23"></path><path d="M100.368 24.8311H101.427V25.9561H100.368V24.8311Z" fill="#E40E23"></path><path d="M101.427 22.5811H102.485V23.7061H101.427V22.5811Z" fill="#E40E23"></path><path d="M101.427 21.4561H102.485V22.5811H101.427V21.4561Z" fill="#E40E23"></path><path d="M94.0149 16.9561H95.0737V18.0811H94.0149V16.9561Z" fill="#E40E23"></path><path d="M94.0149 18.0811H95.0737V19.2061H94.0149V18.0811Z" fill="#E40E23"></path><path d="M96.1325 18.0811H97.1913V19.2061H96.1325V18.0811Z" fill="#E40E23"></path><path d="M99.309 18.0811H100.368V19.2061H99.309V18.0811Z" fill="#E40E23"></path><path d="M98.2502 18.0811H99.309V19.2061H98.2502V18.0811Z" fill="#E40E23"></path><path d="M100.368 18.0811H101.427V19.2061H100.368V18.0811Z" fill="#E40E23"></path><path d="M101.427 19.2061H102.485V20.3311H101.427V19.2061Z" fill="#E40E23"></path><path d="M103.544 19.2061H104.603V20.3311H103.544V19.2061Z" fill="#E40E23"></path><path d="M95.0737 19.2061H96.1325V20.3311H95.0737V19.2061Z" fill="#E40E23"></path><path d="M106.721 18.0811H107.78V19.2061H106.721V18.0811Z" fill="#E40E23"></path><path d="M105.662 19.2061H106.721V20.3311H105.662V19.2061Z" fill="#E40E23"></path><path d="M97.1913 19.2061H98.2502V20.3311H97.1913V19.2061Z" fill="#E40E23"></path><path d="M96.1325 20.3311H97.1913V21.4561H96.1325V20.3311Z" fill="#E40E23"></path><path d="M104.603 20.3311H105.662V21.4561H104.603V20.3311Z" fill="#E40E23"></path><path d="M107.78 18.0811H108.838V19.2061H107.78V18.0811Z" fill="#E40E23"></path><path d="M106.721 19.2061H107.78V20.3311H106.721V19.2061Z" fill="#E40E23"></path><path d="M98.2502 19.2061H99.309V20.3311H98.2502V19.2061Z" fill="#E40E23"></path><path d="M97.1913 20.3311H98.2502V21.4561H97.1913V20.3311Z" fill="#E40E23"></path><path d="M105.662 20.3311H106.721V21.4561H105.662V20.3311Z" fill="#E40E23"></path><path d="M99.309 19.2061H100.368V20.3311H99.309V19.2061Z" fill="#E40E23"></path><path d="M98.2502 20.3311H99.309V21.4561H98.2502V20.3311Z" fill="#E40E23"></path><path d="M106.721 20.3311H107.78V21.4561H106.721V20.3311Z" fill="#E40E23"></path><path d="M108.838 18.0811H109.897V19.2061H108.838V18.0811Z" fill="#E40E23"></path><path d="M107.78 19.2061H108.838V20.3311H107.78V19.2061Z" fill="#E40E23"></path><path d="M102.485 18.0811H103.544V19.2061H102.485V18.0811Z" fill="#E40E23"></path><path d="M104.603 18.0811H105.662V19.2061H104.603V18.0811Z" fill="#E40E23"></path><path d="M108.838 16.9561H109.897V18.0811H108.838V16.9561Z" fill="#E40E23"></path><path d="M95.0737 16.9561H96.1325V18.0811H95.0737V16.9561Z" fill="#E40E23"></path><path d="M96.1325 16.9561H97.1913V18.0811H96.1325V16.9561Z" fill="#E40E23"></path><path d="M97.1913 16.9561H98.2502V18.0811H97.1913V16.9561Z" fill="#E40E23"></path><path d="M98.2502 16.9561H99.309V18.0811H98.2502V16.9561Z" fill="#E40E23"></path><path d="M99.309 16.9561H100.368V18.0811H99.309V16.9561Z" fill="#E40E23"></path><path d="M100.368 16.9561H101.427V18.0811H100.368V16.9561Z" fill="#E40E23"></path><path d="M101.427 16.9561H102.485V18.0811H101.427V16.9561Z" fill="#E40E23"></path><path d="M102.485 16.9561H103.544V18.0811H102.485V16.9561Z" fill="#E40E23"></path><path d="M103.544 16.9561H104.603V18.0811H103.544V16.9561Z" fill="#E40E23"></path><path d="M104.603 16.9561H105.662V18.0811H104.603V16.9561Z" fill="#E40E23"></path><path d="M105.662 16.9561H106.721V18.0811H105.662V16.9561Z" fill="#E40E23"></path><path d="M106.721 16.9561H107.78V18.0811H106.721V16.9561Z" fill="#E40E23"></path><path d="M107.78 16.9561H108.838V18.0811H107.78V16.9561Z" fill="#E40E23"></path><path d="M101.427 24.8311H102.485V25.9561H101.427V24.8311Z" fill="#E40E23"></path><path d="M102.485 22.5811H103.544V23.7061H102.485V22.5811Z" fill="#E40E23"></path><path d="M102.485 24.8311H103.544V25.9561H102.485V24.8311Z" fill="#E40E23"></path><path d="M103.544 24.8311H104.603V25.9561H103.544V24.8311Z" fill="#E40E23"></path><path d="M104.603 24.8311H105.662V25.9561H104.603V24.8311Z" fill="#E40E23"></path><path d="M105.662 24.8311H106.721V25.9561H105.662V24.8311Z" fill="#E40E23"></path><path d="M106.721 24.8311H107.78V25.9561H106.721V24.8311Z" fill="#E40E23"></path><path d="M107.78 24.8311H108.838V25.9561H107.78V24.8311Z" fill="#E40E23"></path><path d="M107.78 23.7061H108.838V24.8311H107.78V23.7061Z" fill="#E40E23"></path><path d="M108.838 22.5811H109.897V23.7061H108.838V22.5811Z" fill="#E40E23"></path><path d="M109.897 21.4561H110.956V22.5811H109.897V21.4561Z" fill="#E40E23"></path><path d="M109.897 20.3311H110.956V21.4561H109.897V20.3311Z" fill="#E40E23"></path><path d="M109.897 19.2061H110.956V20.3311H109.897V19.2061Z" fill="#E40E23"></path><path d="M109.897 18.0811H110.956V19.2061H109.897V18.0811Z" fill="#E40E23"></path><path d="M109.897 16.9561H110.956V18.0811H109.897V16.9561Z" fill="#E40E23"></path><path d="M109.897 15.8311H110.956V16.9561H109.897V15.8311Z" fill="#E40E23"></path><path d="M108.838 14.7061H109.897V15.8311H108.838V14.7061Z" fill="#E40E23"></path><path d="M108.838 13.5811H109.897V14.7061H108.838V13.5811Z" fill="#E40E23"></path><path d="M108.838 12.4561H109.897V13.5811H108.838V12.4561Z" fill="#E40E23"></path><path d="M108.838 11.3311H109.897V12.4561H108.838V11.3311Z" fill="#E40E23"></path><path d="M108.838 10.2061H109.897V11.3311H108.838V10.2061Z" fill="#E40E23"></path><path d="M108.838 9.08105H109.897V10.2061H108.838V9.08105Z" fill="#E40E23"></path><path d="M106.721 7.95605H107.78V9.08105H106.721V7.95605Z" fill="#E40E23"></path><path d="M107.78 7.95605H108.838V9.08105H107.78V7.95605Z" fill="#E40E23"></path><path d="M104.603 10.2061H105.662V11.3311H104.603V10.2061Z" fill="#E40E23"></path><path d="M105.662 9.08105H106.721V10.2061H105.662V9.08105Z" fill="#E40E23"></path><path d="M102.485 11.3311H103.544V12.4561H102.485V11.3311Z" fill="#E40E23"></path><path d="M103.544 11.3311H104.603V12.4561H103.544V11.3311Z" fill="#E40E23"></path><path d="M101.427 11.3311H102.485V12.4561H101.427V11.3311Z" fill="#E40E23"></path><path d="M100.368 11.3311H101.427V12.4561H100.368V11.3311Z" fill="#E40E23"></path><path d="M99.309 11.3311H100.368V12.4561H99.309V11.3311Z" fill="#E40E23"></path><path d="M98.2502 10.2061H99.309V11.3311H98.2502V10.2061Z" fill="#E40E23"></path><path d="M97.1913 9.08105H98.2502V10.2061H97.1913V9.08105Z" fill="#E40E23"></path><path d="M96.1325 7.95605H97.1913V9.08105H96.1325V7.95605Z" fill="#E40E23"></path><path d="M95.0737 7.95605H96.1325V9.08105H95.0737V7.95605Z" fill="#E40E23"></path><path d="M95.0737 9.08105H96.1325V10.2061H95.0737V9.08105Z" fill="#EB5F55"></path><path d="M95.0737 10.2061H96.1325V11.3311H95.0737V10.2061Z" fill="#EB5F55"></path><path d="M95.0737 11.3311H96.1325V12.4561H95.0737V11.3311Z" fill="#EB5F55"></path><path d="M95.0737 12.4561H96.1325V13.5811H95.0737V12.4561Z" fill="#EB5F55"></path><path d="M95.0737 13.5811H96.1325V14.7061H95.0737V13.5811Z" fill="#EB5F55"></path><path d="M95.0737 14.7061H96.1325V15.8311H95.0737V14.7061Z" fill="#EB5F55"></path><path d="M95.0737 15.8311H96.1325V16.9561H95.0737V15.8311Z" fill="#EB5F55"></path><path d="M98.2502 15.8311H99.309V16.9561H98.2502V15.8311Z" fill="#EB5F55"></path><path d="M98.2502 14.7061H99.309V15.8311H98.2502V14.7061Z" fill="#EB5F55"></path><path d="M98.2502 13.5811H99.309V14.7061H98.2502V13.5811Z" fill="#EB5F55"></path><path d="M98.2502 12.4561H99.309V13.5811H98.2502V12.4561Z" fill="#EB5F55"></path><path d="M98.2502 11.3311H99.309V12.4561H98.2502V11.3311Z" fill="#EB5F55"></path><path d="M101.427 15.8311H102.485V16.9561H101.427V15.8311Z" fill="#EB5F55"></path><path d="M101.427 20.3311H102.485V21.4561H101.427V20.3311Z" fill="#EB5F55"></path><path d="M101.427 23.7061H102.485V24.8311H101.427V23.7061Z" fill="#EB5F55"></path><path d="M98.2502 23.7061H99.309V24.8311H98.2502V23.7061Z" fill="#EB5F55"></path><path d="M98.2502 22.5811H99.309V23.7061H98.2502V22.5811Z" fill="#EB5F55"></path><path d="M99.309 21.4561H100.368V22.5811H99.309V21.4561Z" fill="#EB5F55"></path><path d="M104.603 23.7061H105.662V24.8311H104.603V23.7061Z" fill="#EB5F55"></path><path d="M104.603 22.5811H105.662V23.7061H104.603V22.5811Z" fill="#EB5F55"></path><path d="M103.544 21.4561H104.603V22.5811H103.544V21.4561Z" fill="#EB5F55"></path><path d="M101.427 18.0811H102.485V19.2061H101.427V18.0811Z" fill="#EB5F55"></path><path d="M100.368 19.2061H101.427V20.3311H100.368V19.2061Z" fill="#EB5F55"></path><path d="M102.485 19.2061H103.544V20.3311H102.485V19.2061Z" fill="#EB5F55"></path><path d="M101.427 14.7061H102.485V15.8311H101.427V14.7061Z" fill="#EB5F55"></path><path d="M101.427 13.5811H102.485V14.7061H101.427V13.5811Z" fill="#EB5F55"></path><path d="M101.427 12.4561H102.485V13.5811H101.427V12.4561Z" fill="#EB5F55"></path><path d="M104.603 15.8311H105.662V16.9561H104.603V15.8311Z" fill="#EB5F55"></path><path d="M104.603 14.7061H105.662V15.8311H104.603V14.7061Z" fill="#EB5F55"></path><path d="M104.603 13.5811H105.662V14.7061H104.603V13.5811Z" fill="#EB5F55"></path><path d="M104.603 12.4561H105.662V13.5811H104.603V12.4561Z" fill="#EB5F55"></path><path d="M104.603 11.3311H105.662V12.4561H104.603V11.3311Z" fill="#EB5F55"></path><path d="M107.78 15.8311H108.838V16.9561H107.78V15.8311Z" fill="#EB5F55"></path><path d="M108.838 15.8311H109.897V16.9561H108.838V15.8311Z" fill="#EB5F55"></path><path d="M107.78 14.7061H108.838V15.8311H107.78V14.7061Z" fill="#EB5F55"></path><path d="M107.78 13.5811H108.838V14.7061H107.78V13.5811Z" fill="#EB5F55"></path><path d="M107.78 12.4561H108.838V13.5811H107.78V12.4561Z" fill="#EB5F55"></path><path d="M107.78 11.3311H108.838V12.4561H107.78V11.3311Z" fill="#EB5F55"></path><path d="M107.78 10.2061H108.838V11.3311H107.78V10.2061Z" fill="#EB5F55"></path><path d="M107.78 9.08105H108.838V10.2061H107.78V9.08105Z" fill="#EB5F55"></path><path d="M94.0149 15.8311H95.0737V16.9561H94.0149V15.8311Z" fill="#EB5F55"></path><path d="M97.1913 15.8311H98.2502V16.9561H97.1913V15.8311Z" fill="#EB5F55"></path><path d="M97.1913 14.7061H98.2502V15.8311H97.1913V14.7061Z" fill="#EB5F55"></path><path d="M97.1913 13.5811H98.2502V14.7061H97.1913V13.5811Z" fill="#EB5F55"></path><path d="M97.1913 11.3311H98.2502V12.4561H97.1913V11.3311Z" fill="#EB5F55"></path><path d="M97.1913 12.4561H98.2502V13.5811H97.1913V12.4561Z" fill="#EB5F55"></path><path d="M97.1913 10.2061H98.2502V11.3311H97.1913V10.2061Z" fill="#EB5F55"></path><path d="M100.368 15.8311H101.427V16.9561H100.368V15.8311Z" fill="#EB5F55"></path><path d="M100.368 20.3311H101.427V21.4561H100.368V20.3311Z" fill="#EB5F55"></path><path d="M100.368 23.7061H101.427V24.8311H100.368V23.7061Z" fill="#EB5F55"></path><path d="M97.1913 23.7061H98.2502V24.8311H97.1913V23.7061Z" fill="#EB5F55"></path><path d="M97.1913 22.5811H98.2502V23.7061H97.1913V22.5811Z" fill="#EB5F55"></path><path d="M98.2502 21.4561H99.309V22.5811H98.2502V21.4561Z" fill="#EB5F55"></path><path d="M95.0737 20.3311H96.1325V21.4561H95.0737V20.3311Z" fill="white"></path><path d="M108.838 19.2061H109.897V20.3311H108.838V19.2061Z" fill="white"></path><path d="M95.0737 21.4561H96.1325V22.5811H95.0737V21.4561Z" fill="white"></path><path d="M108.838 20.3311H109.897V21.4561H108.838V20.3311Z" fill="white"></path><path d="M107.78 20.3311H108.838V21.4561H107.78V20.3311Z" fill="white"></path><path d="M106.721 21.4561H107.78V22.5811H106.721V21.4561Z" fill="white"></path><path d="M96.1325 21.4561H97.1913V22.5811H96.1325V21.4561Z" fill="white"></path><path d="M107.78 21.4561H108.838V22.5811H107.78V21.4561Z" fill="white"></path><path d="M97.1913 21.4561H98.2502V22.5811H97.1913V21.4561Z" fill="white"></path><path d="M108.838 21.4561H109.897V22.5811H108.838V21.4561Z" fill="white"></path><path d="M96.1325 19.2061H97.1913V20.3311H96.1325V19.2061Z" fill="white"></path><path d="M104.603 19.2061H105.662V20.3311H104.603V19.2061Z" fill="white"></path><path d="M95.0737 18.0811H96.1325V19.2061H95.0737V18.0811Z" fill="white"></path><path d="M103.544 18.0811H104.603V19.2061H103.544V18.0811Z" fill="white"></path><path d="M97.1913 18.0811H98.2502V19.2061H97.1913V18.0811Z" fill="white"></path><path d="M105.662 18.0811H106.721V19.2061H105.662V18.0811Z" fill="white"></path><path d="M100.368 14.7061H101.427V15.8311H100.368V14.7061Z" fill="#EB5F55"></path><path d="M100.368 13.5811H101.427V14.7061H100.368V13.5811Z" fill="#EB5F55"></path><path d="M100.368 12.4561H101.427V13.5811H100.368V12.4561Z" fill="#EB5F55"></path><path d="M103.544 15.8311H104.603V16.9561H103.544V15.8311Z" fill="#EB5F55"></path><path d="M103.544 20.3311H104.603V21.4561H103.544V20.3311Z" fill="#EB5F55"></path><path d="M103.544 23.7061H104.603V24.8311H103.544V23.7061Z" fill="#EB5F55"></path><path d="M103.544 22.5811H104.603V23.7061H103.544V22.5811Z" fill="#EB5F55"></path><path d="M102.485 21.4561H103.544V22.5811H102.485V21.4561Z" fill="#EB5F55"></path><path d="M106.721 23.7061H107.78V24.8311H106.721V23.7061Z" fill="#EB5F55"></path><path d="M106.721 22.5811H107.78V23.7061H106.721V22.5811Z" fill="#EB5F55"></path><path d="M107.78 22.5811H108.838V23.7061H107.78V22.5811Z" fill="#EB5F55"></path><path d="M103.544 14.7061H104.603V15.8311H103.544V14.7061Z" fill="#EB5F55"></path><path d="M103.544 13.5811H104.603V14.7061H103.544V13.5811Z" fill="#EB5F55"></path><path d="M103.544 12.4561H104.603V13.5811H103.544V12.4561Z" fill="#EB5F55"></path><path d="M106.721 15.8311H107.78V16.9561H106.721V15.8311Z" fill="#EB5F55"></path><path d="M106.721 14.7061H107.78V15.8311H106.721V14.7061Z" fill="#EB5F55"></path><path d="M106.721 13.5811H107.78V14.7061H106.721V13.5811Z" fill="#EB5F55"></path><path d="M106.721 12.4561H107.78V13.5811H106.721V12.4561Z" fill="#EB5F55"></path><path d="M106.721 11.3311H107.78V12.4561H106.721V11.3311Z" fill="#EB5F55"></path><path d="M106.721 10.2061H107.78V11.3311H106.721V10.2061Z" fill="#EB5F55"></path><path d="M106.721 9.08105H107.78V10.2061H106.721V9.08105Z" fill="#EB5F55"></path><path d="M96.1325 9.08105H97.1913V10.2061H96.1325V9.08105Z" fill="#EB5F55"></path><path d="M96.1325 10.2061H97.1913V11.3311H96.1325V10.2061Z" fill="#EB5F55"></path><path d="M96.1325 11.3311H97.1913V12.4561H96.1325V11.3311Z" fill="#EB5F55"></path><path d="M96.1325 12.4561H97.1913V13.5811H96.1325V12.4561Z" fill="#EB5F55"></path><path d="M96.1325 13.5811H97.1913V14.7061H96.1325V13.5811Z" fill="#EB5F55"></path><path d="M94.0149 19.2061H95.0737V20.3311H94.0149V19.2061Z" fill="#EB5F55"></path><path d="M96.1325 14.7061H97.1913V15.8311H96.1325V14.7061Z" fill="#EB5F55"></path><path d="M94.0149 20.3311H95.0737V21.4561H94.0149V20.3311Z" fill="#EB5F55"></path><path d="M96.1325 15.8311H97.1913V16.9561H96.1325V15.8311Z" fill="#EB5F55"></path><path d="M94.0149 21.4561H95.0737V22.5811H94.0149V21.4561Z" fill="#EB5F55"></path><path d="M99.309 15.8311H100.368V16.9561H99.309V15.8311Z" fill="#EB5F55"></path><path d="M99.309 20.3311H100.368V21.4561H99.309V20.3311Z" fill="#EB5F55"></path><path d="M99.309 23.7061H100.368V24.8311H99.309V23.7061Z" fill="#EB5F55"></path><path d="M99.309 22.5811H100.368V23.7061H99.309V22.5811Z" fill="#EB5F55"></path><path d="M100.368 21.4561H101.427V22.5811H100.368V21.4561Z" fill="#EB5F55"></path><path d="M96.1325 23.7061H97.1913V24.8311H96.1325V23.7061Z" fill="#EB5F55"></path><path d="M96.1325 22.5811H97.1913V23.7061H96.1325V22.5811Z" fill="#EB5F55"></path><path d="M95.0737 22.5811H96.1325V23.7061H95.0737V22.5811Z" fill="#EB5F55"></path><path d="M99.309 14.7061H100.368V15.8311H99.309V14.7061Z" fill="#EB5F55"></path><path d="M99.309 13.5811H100.368V14.7061H99.309V13.5811Z" fill="#EB5F55"></path><path d="M99.309 12.4561H100.368V13.5811H99.309V12.4561Z" fill="#EB5F55"></path><path d="M102.485 15.8311H103.544V16.9561H102.485V15.8311Z" fill="#EB5F55"></path><path d="M102.485 20.3311H103.544V21.4561H102.485V20.3311Z" fill="#EB5F55"></path><path d="M102.485 23.7061H103.544V24.8311H102.485V23.7061Z" fill="#EB5F55"></path><path d="M105.662 23.7061H106.721V24.8311H105.662V23.7061Z" fill="#EB5F55"></path><path d="M105.662 22.5811H106.721V23.7061H105.662V22.5811Z" fill="#EB5F55"></path><path d="M104.603 21.4561H105.662V22.5811H104.603V21.4561Z" fill="#EB5F55"></path><path d="M105.662 21.4561H106.721V22.5811H105.662V21.4561Z" fill="#EB5F55"></path><path d="M102.485 14.7061H103.544V15.8311H102.485V14.7061Z" fill="#EB5F55"></path><path d="M102.485 13.5811H103.544V14.7061H102.485V13.5811Z" fill="#EB5F55"></path><path d="M102.485 12.4561H103.544V13.5811H102.485V12.4561Z" fill="#EB5F55"></path><path d="M105.662 15.8311H106.721V16.9561H105.662V15.8311Z" fill="#EB5F55"></path><path d="M105.662 14.7061H106.721V15.8311H105.662V14.7061Z" fill="#EB5F55"></path><path d="M105.662 13.5811H106.721V14.7061H105.662V13.5811Z" fill="#EB5F55"></path><path d="M105.662 12.4561H106.721V13.5811H105.662V12.4561Z" fill="#EB5F55"></path><path d="M105.662 11.3311H106.721V12.4561H105.662V11.3311Z" fill="#EB5F55"></path><path d="M105.662 10.2061H106.721V11.3311H105.662V10.2061Z" fill="#EB5F55"></path><path d="M1.41949 16.0377C1.41949 14.7644 2.13432 14.0943 3.4076 14.0943H10.9803V17.4674H5.26168V25.3975H1.41949V16.0377ZM11.396 19.7012C11.396 16.0601 13.8979 13.8709 17.405 13.8709C21.3142 13.8709 23.5704 15.993 23.5704 19.5448V20.55H15.2382C15.3722 21.9574 16.1987 22.7392 17.5837 22.7392C18.7676 22.7392 19.5718 22.2701 19.7952 21.3989H23.5927C23.28 23.9008 21.0685 25.6208 17.5837 25.6208C13.7638 25.6208 11.396 23.2306 11.396 19.7012ZM15.2382 18.5843H19.8399C19.7282 17.3333 18.857 16.6408 17.5167 16.6408C16.1987 16.6408 15.3275 17.3333 15.2382 18.5843ZM29.7712 25.6208C26.4651 25.6208 24.9014 22.8956 24.9014 19.7235C24.9014 16.5738 26.4651 13.8709 29.7712 13.8709C32.5858 13.8709 33.591 15.3005 34.1718 16.7525H35.1324L34.3952 14.6304V8.97881H38.215V25.3975H34.3952V24.8613L35.1324 22.7169H34.1718C33.591 24.1912 32.5858 25.6208 29.7712 25.6208ZM28.7213 19.7235C28.7213 21.4883 29.7041 22.2478 31.5806 22.2478C33.457 22.2478 34.3952 21.5106 34.3952 19.7235C34.3952 17.9811 33.457 17.244 31.5806 17.244C29.7041 17.244 28.7213 17.9811 28.7213 19.7235ZM45.9942 19.7235C45.9942 15.8813 48.6301 13.8709 52.2266 13.8709C55.4656 13.8709 58.2802 15.658 58.4143 18.83H54.5721C54.4604 17.9811 53.6339 17.244 52.2266 17.244C50.8863 17.244 49.814 18.0928 49.814 19.7235C49.814 21.3766 50.8863 22.2478 52.2266 22.2478C53.6339 22.2478 54.4604 21.5106 54.5721 20.6617H58.4143C58.2802 23.8338 55.4656 25.6208 52.2266 25.6208C48.6301 25.6208 45.9942 23.5881 45.9942 19.7235ZM59.6741 22.3148C59.6741 20.349 60.8134 19.1874 64.2758 18.83L67.7159 18.4502C67.7159 17.2663 67.0458 16.7972 65.7501 16.7972C64.3652 16.7972 63.5833 17.378 63.5387 18.3832H59.9422C60.0092 15.4122 62.5111 13.8709 65.6161 13.8709C68.7435 13.8709 71.5581 15.2782 71.5581 18.5396V22.0244H73.1888V25.3975H70.5976C69.503 25.3975 68.8552 24.772 68.8552 23.6774V23.5657L69.4583 22.2031H68.5201C68.0957 24.0348 67.0234 25.6208 63.8514 25.6208C60.2773 25.6208 59.6741 23.4764 59.6741 22.3148ZM63.427 21.667C63.427 22.4041 64.0971 22.5828 64.8343 22.5828C66.4203 22.5828 67.7159 21.734 67.7159 20.3713L64.9906 20.7734C63.9854 20.9298 63.427 21.0415 63.427 21.667ZM83.6925 22.0244V25.3975H77.6165C76.3655 25.3975 75.6731 24.705 75.6731 23.4317V17.4674H72.9478V14.0943H75.6731V12.0838L79.4929 10.8776V14.0943H83.2457V17.4674H79.4929V22.0467L83.6925 22.0244Z" fill="#E40E23"></path></svg> 